<svg width="40" height="41" viewBox="0 0 40 41" fill="none" xmlns="http://www.w3.org/2000/svg">
<rect y="1.21436" width="27.1186" height="28.5714" rx="8" fill="#A3E2B3"/>
<path d="M38.2977 16.1328L29.9926 6.13284C29.909 6.03216 29.8059 5.95149 29.6903 5.89624C29.5747 5.84099 29.4492 5.81245 29.3222 5.81253H12.7121C12.5857 5.81147 12.4605 5.83879 12.3449 5.89268C12.2293 5.94656 12.126 6.02577 12.0417 6.12503L3.73664 16.125C3.59335 16.2994 3.51609 16.5233 3.51965 16.7539C3.52321 16.9845 3.60732 17.2057 3.75592 17.375L20.3661 36.125C20.4494 36.2192 20.5501 36.2943 20.6621 36.3456C20.7741 36.397 20.895 36.4235 21.0171 36.4235C21.1393 36.4235 21.2601 36.397 21.3722 36.3456C21.4842 36.2943 21.5849 36.2192 21.6682 36.125L38.2784 17.375C38.4249 17.2061 38.5078 16.9866 38.5113 16.7578C38.5149 16.529 38.4389 16.3067 38.2977 16.1328ZM13.2964 17.6875L18.4277 31.2016L6.45507 17.6875H13.2964ZM26.8218 17.6875L21.0171 32.975L15.2125 17.6875H26.8218ZM15.6782 15.8125L21.0171 8.31253L26.3561 15.8125H15.6782ZM28.7379 17.6875H35.5792L23.6066 31.2016L28.7379 17.6875ZM35.6667 15.8125H28.5807L22.7968 7.68753H28.9188L35.6667 15.8125ZM13.1155 7.68753H19.2375L13.4536 15.8125H6.36757L13.1155 7.68753Z" fill="#343330"/>
</svg>
