<svg width="40" height="41" viewBox="0 0 40 41" fill="none" xmlns="http://www.w3.org/2000/svg">
<rect x="1.42871" y="2.64282" width="25.7143" height="25.7143" rx="8" fill="#F5BA6D"/>
<path d="M26.0453 18.6891C27.0675 17.8465 27.8107 16.7143 28.1773 15.4414C28.5439 14.1685 28.5167 12.8144 28.0993 11.5572C27.6819 10.3001 26.8938 9.19863 25.8386 8.39779C24.7835 7.59694 23.5106 7.13417 22.1875 7.07031V4.25C22.1875 4.00136 22.0887 3.7629 21.9129 3.58709C21.7371 3.41127 21.4986 3.3125 21.25 3.3125C21.0014 3.3125 20.7629 3.41127 20.5871 3.58709C20.4113 3.7629 20.3125 4.00136 20.3125 4.25V7.0625H17.1875V4.25C17.1875 4.00136 17.0887 3.7629 16.9129 3.58709C16.7371 3.41127 16.4986 3.3125 16.25 3.3125C16.0014 3.3125 15.7629 3.41127 15.5871 3.58709C15.4113 3.7629 15.3125 4.00136 15.3125 4.25V7.0625H10C9.75136 7.0625 9.5129 7.16127 9.33709 7.33709C9.16127 7.5129 9.0625 7.75136 9.0625 8C9.0625 8.24864 9.16127 8.4871 9.33709 8.66291C9.5129 8.83873 9.75136 8.9375 10 8.9375H11.5625V30.8125H10C9.75136 30.8125 9.5129 30.9113 9.33709 31.0871C9.16127 31.2629 9.0625 31.5014 9.0625 31.75C9.0625 31.9986 9.16127 32.2371 9.33709 32.4129C9.5129 32.5887 9.75136 32.6875 10 32.6875H15.3125V35.5C15.3125 35.7486 15.4113 35.9871 15.5871 36.1629C15.7629 36.3387 16.0014 36.4375 16.25 36.4375C16.4986 36.4375 16.7371 36.3387 16.9129 36.1629C17.0887 35.9871 17.1875 35.7486 17.1875 35.5V32.6875H20.3125V35.5C20.3125 35.7486 20.4113 35.9871 20.5871 36.1629C20.7629 36.3387 21.0014 36.4375 21.25 36.4375C21.4986 36.4375 21.7371 36.3387 21.9129 36.1629C22.0887 35.9871 22.1875 35.7486 22.1875 35.5V32.6875H23.75C25.4545 32.6874 27.1035 32.0814 28.4026 30.9779C29.7017 29.8744 30.5664 28.3451 30.8422 26.663C31.118 24.9809 30.787 23.2556 29.9084 21.795C29.0297 20.3344 27.6605 19.2335 26.0453 18.6891ZM26.5625 13.625C26.5625 14.8682 26.0686 16.0605 25.1896 16.9396C24.3105 17.8186 23.1182 18.3125 21.875 18.3125H13.4375V8.9375H21.875C23.1182 8.9375 24.3105 9.43136 25.1896 10.3104C26.0686 11.1895 26.5625 12.3818 26.5625 13.625ZM23.75 30.8125H13.4375V20.1875H23.75C25.159 20.1875 26.5102 20.7472 27.5065 21.7435C28.5028 22.7398 29.0625 24.091 29.0625 25.5C29.0625 26.909 28.5028 28.2602 27.5065 29.2565C26.5102 30.2528 25.159 30.8125 23.75 30.8125Z" fill="#343330"/>
</svg>
