<svg width="316" height="59" viewBox="0 0 316 59" fill="none" xmlns="http://www.w3.org/2000/svg">
<g clip-path="url(#clip0_83_51384)">
<mask id="mask0_83_51384" style="mask-type:luminance" maskUnits="userSpaceOnUse" x="0" y="0" width="316" height="59">
<path d="M315.205 0H0V58.4001H315.205V0Z" fill="white"/>
</mask>
<g mask="url(#mask0_83_51384)">
<path d="M77.603 56.0992L58.903 2.89922C58.703 2.29922 59.103 1.69922 59.803 1.69922H72.803C73.203 1.69922 73.503 1.99922 73.703 2.29922L82.403 30.1993L84.903 38.8993C84.903 38.9993 85.003 38.9993 85.003 38.9993C85.103 38.9993 85.103 38.9993 85.103 38.8993C85.603 36.5993 86.403 33.6993 87.503 30.1993L96.403 2.29922C96.503 1.89922 96.903 1.69922 97.303 1.69922H110.103C110.703 1.69922 111.203 2.29922 111.003 2.89922L92.103 56.0992C92.003 56.4992 91.603 56.6993 91.203 56.6993H78.403C78.003 56.6993 77.703 56.4992 77.603 56.0992Z" fill="white"/>
<path d="M140.702 58.3996C131.802 58.3996 124.802 55.6996 119.702 50.1996C114.602 44.6996 112.102 37.6996 112.102 29.0996C112.102 20.5996 114.602 13.8996 119.702 8.39961C124.802 2.79961 131.302 0.0996094 139.302 0.0996094C148.002 0.0996094 154.702 3.09961 159.402 9.09961C164.002 14.9996 166.402 22.6996 166.502 32.3996C166.502 32.8996 166.102 33.2996 165.602 33.2996H127.502C126.902 33.2996 126.502 33.7996 126.602 34.3996C127.302 38.2996 128.702 41.2996 130.902 43.4996C133.302 45.8996 136.502 47.0996 140.602 47.0996C145.802 47.0996 149.202 44.9996 151.002 40.7996C151.102 40.4996 151.502 40.2996 151.802 40.2996H164.502C165.102 40.2996 165.502 40.8996 165.402 41.3996C164.202 46.0996 161.502 49.9996 157.502 53.1996C153.102 56.6996 147.502 58.3996 140.702 58.3996ZM139.602 11.2996C132.802 11.2996 128.602 14.8996 127.002 22.0996C126.902 22.6996 127.302 23.1996 127.902 23.1996H150.302C150.802 23.1996 151.302 22.6996 151.202 22.1996C150.802 19.0996 149.702 16.5996 147.702 14.5996C145.602 12.3996 142.802 11.2996 139.602 11.2996Z" fill="white"/>
<path d="M203.505 13.3993C203.505 13.8993 203.105 14.2993 202.605 14.2993H187.805C187.305 14.2993 186.905 14.6993 186.905 15.1993V55.8993C186.905 56.3993 186.505 56.7992 186.005 56.7992H173.705C173.205 56.7992 172.805 56.3993 172.805 55.8993V19.1993C172.805 9.49922 180.705 1.69922 190.305 1.69922H202.505C203.005 1.69922 203.405 2.09922 203.405 2.59922L203.505 13.3993Z" fill="white"/>
<path d="M232.8 58.4C224.8 58.4 218.6 56.7 214.1 53.2C209.9 49.9 208.1 45.5 207.5 39.9C207.5 39.4 207.9 38.9 208.4 38.9H220.3C220.7 38.9 221.1 39.2 221.2 39.6C222.3 45.2 225.6 48 232.5 48C235.8 48 238.3 47.4 240.1 46.3C241.9 45.1 242.8 43.6 242.8 41.7C242.8 41 242.7 40.3 242.4 39.8C242.1 39.2 241.7 38.7 241.1 38.2C240.5 37.7 239.9 37.4 239.5 37.1C239 36.8 238.2 36.5 237.1 36.2C235.9 35.9 235.1 35.7 234.4 35.6C233.8 35.5 232.7 35.3 231.2 35C229.7 34.7 228.7 34.6 228.1 34.4C225.1 33.8 222.6 33.2 220.7 32.6C218.8 32 216.8 31.1 214.7 29.9C212.6 28.7 211 27.1 210 25.1C208.9 23.1 208.4 20.6 208.4 17.7C208.4 12 210.5 7.6 214.8 4.6C219.1 1.6 224.4 0 231 0C238.2 0 243.8 1.6 247.9 4.9C251.7 8 253.4 12.1 254.1 17.3C254.2 17.8 253.7 18.3 253.2 18.3H241.6C241.2 18.3 240.8 18 240.7 17.5C239.9 12.6 237 10.2 230.8 10.2C227.8 10.2 225.5 10.7 223.8 11.8C222.1 12.9 221.2 14.4 221.2 16.3C221.2 16.9 221.3 17.5 221.6 18.1C221.9 18.7 222.3 19.1 222.9 19.5C223.5 19.9 224.1 20.2 224.7 20.5C225.3 20.8 226.1 21 227.2 21.3C228.3 21.6 229.2 21.8 230 21.9C230.8 22.1 231.9 22.3 233.3 22.5C234.7 22.8 235.8 22.9 236.6 23.1C238.9 23.6 240.8 24.1 242.3 24.4C243.8 24.8 245.5 25.4 247.5 26.3C249.5 27.2 251 28.2 252.1 29.3C253.2 30.4 254.2 31.9 255 33.8C255.8 35.7 256.2 37.9 256.2 40.4C256.2 45.9 254 50.2 249.7 53.4C245.5 56.8 239.8 58.4 232.8 58.4Z" fill="white"/>
<path d="M289.405 58.3996C280.505 58.3996 273.505 55.6996 268.405 50.1996C263.305 44.6996 260.805 37.6996 260.805 29.0996C260.805 20.5996 263.305 13.8996 268.405 8.39961C273.505 2.79961 280.005 0.0996094 288.005 0.0996094C296.705 0.0996094 303.405 3.09961 308.105 9.09961C312.705 14.9996 315.105 22.6996 315.205 32.3996C315.205 32.8996 314.805 33.2996 314.305 33.2996H276.205C275.605 33.2996 275.205 33.7996 275.305 34.3996C276.005 38.2996 277.405 41.2996 279.605 43.4996C282.005 45.8996 285.205 47.0996 289.305 47.0996C294.505 47.0996 297.905 44.9996 299.705 40.7996C299.805 40.4996 300.205 40.2996 300.505 40.2996H313.205C313.805 40.2996 314.205 40.8996 314.105 41.3996C312.905 46.0996 310.205 49.9996 306.205 53.1996C301.805 56.6996 296.205 58.3996 289.405 58.3996ZM288.205 11.2996C281.405 11.2996 277.205 14.8996 275.605 22.0996C275.505 22.6996 275.905 23.1996 276.505 23.1996H298.905C299.405 23.1996 299.905 22.6996 299.805 22.1996C299.405 19.0996 298.305 16.5996 296.305 14.5996C294.305 12.3996 291.505 11.2996 288.205 11.2996Z" fill="white"/>
<path d="M55.2 55.8V45.8C55.2 45.4 55 45 54.8 44.7L12.1 1.9C11.8 1.6 11.4 1.5 11 1.5H1C0.5 1.5 0.1 1.9 0.1 2.4V11.7C0.1 12.1 0.3 12.5 0.5 12.8L15.8 28.1C16.2 28.5 16.2 29 15.8 29.4L0.3 44.9C0.0999999 45.1 0 45.3 0 45.5V55.7C0 56.2 0.4 56.6 0.9 56.6H17.7C18.2 56.6 18.6 56.2 18.6 55.7V49.7C18.6 49.5 18.7 49.2 18.9 49.1L27.2 40.8C27.6 40.4 28.1 40.4 28.5 40.8L43.9 56.2C44.2 56.5 44.6 56.6 45 56.6H54.3C54.8 56.7 55.2 56.3 55.2 55.8Z" fill="white"/>
<path d="M32.7014 14.7H41.1014C41.6014 14.7 42.0014 15.1 42.0014 15.6V24C42.0014 24.8 43.0014 25.2 43.5014 24.6L55.0014 13.1C55.2014 12.9 55.3014 12.7 55.3014 12.5V2.4C55.3014 1.9 54.9014 1.5 54.4014 1.5H44.2014C44.0014 1.5 43.7014 1.6 43.6014 1.8L32.1014 13.2C31.5014 13.7 31.9014 14.7 32.7014 14.7Z" fill="#EE7A30"/>
</g>
</g>
<defs>
<clipPath id="clip0_83_51384">
<rect width="316" height="59" fill="white"/>
</clipPath>
</defs>
</svg>