<svg width="40" height="40" viewBox="0 0 40 40" fill="none" xmlns="http://www.w3.org/2000/svg">
<rect y="0.714233" width="28.5714" height="28.5714" rx="8" fill="#A3E2B3"/>
<path d="M33.75 12.8125H28.4375V7.5C28.4375 6.91984 28.207 6.36344 27.7968 5.9532C27.3866 5.54297 26.8302 5.3125 26.25 5.3125H6.25C5.66984 5.3125 5.11344 5.54297 4.7032 5.9532C4.29297 6.36344 4.0625 6.91984 4.0625 7.5V27.5C4.06271 27.677 4.113 27.8503 4.20756 27.9999C4.30213 28.1494 4.4371 28.2692 4.59688 28.3453C4.72246 28.4064 4.86035 28.4379 5 28.4375C5.21434 28.4376 5.42224 28.3643 5.58906 28.2297L11.5172 23.4375H11.5625V28.75C11.5625 29.3302 11.793 29.8866 12.2032 30.2968C12.6134 30.707 13.1698 30.9375 13.75 30.9375H28.4828L34.4109 35.7297C34.5778 35.8643 34.7857 35.9376 35 35.9375C35.1396 35.9379 35.2775 35.9064 35.4031 35.8453C35.5629 35.7692 35.6979 35.6494 35.7924 35.4999C35.887 35.3503 35.9373 35.177 35.9375 35V15C35.9375 14.4198 35.707 13.8634 35.2968 13.4532C34.8866 13.043 34.3302 12.8125 33.75 12.8125ZM11.1844 21.5625C10.97 21.5624 10.7621 21.6357 10.5953 21.7703L5.9375 25.5359V7.5C5.9375 7.41712 5.97042 7.33763 6.02903 7.27903C6.08763 7.22042 6.16712 7.1875 6.25 7.1875H26.25C26.3329 7.1875 26.4124 7.22042 26.471 7.27903C26.5296 7.33763 26.5625 7.41712 26.5625 7.5V21.25C26.5625 21.3329 26.5296 21.4124 26.471 21.471C26.4124 21.5296 26.3329 21.5625 26.25 21.5625H11.1844ZM34.0625 33.0359L29.4047 29.2703C29.2379 29.1357 29.03 29.0624 28.8156 29.0625H13.75C13.6671 29.0625 13.5876 29.0296 13.529 28.971C13.4704 28.9124 13.4375 28.8329 13.4375 28.75V23.4375H26.25C26.8302 23.4375 27.3866 23.207 27.7968 22.7968C28.207 22.3866 28.4375 21.8302 28.4375 21.25V14.6875H33.75C33.8329 14.6875 33.9124 14.7204 33.971 14.779C34.0296 14.8376 34.0625 14.9171 34.0625 15V33.0359Z" fill="#343330"/>
</svg>
