<svg width="40" height="41" viewBox="0 0 40 41" fill="none" xmlns="http://www.w3.org/2000/svg">
<rect y="2.64282" width="31.4286" height="23.5714" rx="8" fill="#BEA4FF"/>
<path d="M32.5 8.3125H7.5C6.58832 8.3125 5.71398 8.67466 5.06932 9.31932C4.42466 9.96398 4.0625 10.8383 4.0625 11.75V29.25C4.0625 30.1617 4.42466 31.036 5.06932 31.6807C5.71398 32.3253 6.58832 32.6875 7.5 32.6875H32.5C33.4117 32.6875 34.286 32.3253 34.9307 31.6807C35.5753 31.036 35.9375 30.1617 35.9375 29.25V11.75C35.9375 10.8383 35.5753 9.96398 34.9307 9.31932C34.286 8.67466 33.4117 8.3125 32.5 8.3125ZM5.9375 15.1875H34.0625V18.3125H26.1234C25.6192 18.3128 25.1306 18.4874 24.7402 18.8065C24.3498 19.1257 24.0817 19.5699 23.9812 20.0641C23.7978 20.9858 23.3005 21.8155 22.574 22.4116C21.8475 23.0078 20.9367 23.3337 19.9969 23.3337C19.0571 23.3337 18.1463 23.0078 17.4198 22.4116C16.6933 21.8155 16.1959 20.9858 16.0125 20.0641C15.9122 19.571 15.645 19.1276 15.256 18.8085C14.8669 18.4894 14.3797 18.3143 13.8766 18.3125H5.9375V15.1875ZM7.5 10.1875H32.5C32.9144 10.1875 33.3118 10.3521 33.6049 10.6451C33.8979 10.9382 34.0625 11.3356 34.0625 11.75V13.3125H5.9375V11.75C5.9375 11.3356 6.10212 10.9382 6.39515 10.6451C6.68817 10.3521 7.0856 10.1875 7.5 10.1875ZM32.5 30.8125H7.5C7.0856 30.8125 6.68817 30.6479 6.39515 30.3549C6.10212 30.0618 5.9375 29.6644 5.9375 29.25V20.1875H13.8766C13.9495 20.186 14.0206 20.2099 14.0777 20.2553C14.1347 20.3007 14.1741 20.3646 14.1891 20.4359C14.4616 21.7782 15.1898 22.9849 16.2503 23.8516C17.3107 24.7184 18.6382 25.1919 20.0078 25.1919C21.3774 25.1919 22.7049 24.7184 23.7654 23.8516C24.8258 22.9849 25.554 21.7782 25.8266 20.4359C25.8412 20.3659 25.8795 20.303 25.9349 20.2578C25.9904 20.2126 26.0597 20.1878 26.1313 20.1875H34.0625V29.25C34.0625 29.6644 33.8979 30.0618 33.6049 30.3549C33.3118 30.6479 32.9144 30.8125 32.5 30.8125Z" fill="#343330"/>
</svg>
