<svg width="40" height="41" viewBox="0 0 40 41" fill="none" xmlns="http://www.w3.org/2000/svg">
<rect x="0.713867" y="9.07153" width="28.5714" height="19.2857" rx="8" fill="#A3E2B3"/>
<path d="M32.5 13.3125H27.1875V9.25C27.1875 7.34376 26.4302 5.51559 25.0823 4.16767C23.7344 2.81975 21.9062 2.0625 20 2.0625C18.0938 2.0625 16.2656 2.81975 14.9177 4.16767C13.5698 5.51559 12.8125 7.34376 12.8125 9.25V13.3125H7.5C6.91984 13.3125 6.36344 13.543 5.9532 13.9532C5.54297 14.3634 5.3125 14.9198 5.3125 15.5V33C5.3125 33.5802 5.54297 34.1366 5.9532 34.5468C6.36344 34.957 6.91984 35.1875 7.5 35.1875H32.5C33.0802 35.1875 33.6366 34.957 34.0468 34.5468C34.457 34.1366 34.6875 33.5802 34.6875 33V15.5C34.6875 14.9198 34.457 14.3634 34.0468 13.9532C33.6366 13.543 33.0802 13.3125 32.5 13.3125ZM7.1875 20.1875H32.8125V23.3125H7.1875V20.1875ZM7.1875 25.1875H32.8125V28.3125H7.1875V25.1875ZM14.6875 9.25C14.6875 7.84104 15.2472 6.48978 16.2435 5.4935C17.2398 4.49721 18.591 3.9375 20 3.9375C21.409 3.9375 22.7602 4.49721 23.7565 5.4935C24.7528 6.48978 25.3125 7.84104 25.3125 9.25V13.3125H14.6875V9.25ZM7.5 15.1875H32.5C32.5829 15.1875 32.6624 15.2204 32.721 15.279C32.7796 15.3376 32.8125 15.4171 32.8125 15.5V18.3125H7.1875V15.5C7.1875 15.4171 7.22042 15.3376 7.27903 15.279C7.33763 15.2204 7.41712 15.1875 7.5 15.1875ZM32.5 33.3125H7.5C7.41712 33.3125 7.33763 33.2796 7.27903 33.221C7.22042 33.1624 7.1875 33.0829 7.1875 33V30.1875H32.8125V33C32.8125 33.0829 32.7796 33.1624 32.721 33.221C32.6624 33.2796 32.5829 33.3125 32.5 33.3125Z" fill="#343330"/>
</svg>
