<svg width="40" height="41" viewBox="0 0 40 41" fill="none" xmlns="http://www.w3.org/2000/svg">
<rect y="1.21436" width="28.5714" height="28.5714" rx="14.2857" fill="#BEA4FF"/>
<path d="M20 7.0625C17.0951 7.0625 14.2554 7.92391 11.8401 9.53779C9.42472 11.1517 7.54219 13.4455 6.43053 16.1293C5.31886 18.8131 5.028 21.7663 5.59472 24.6154C6.16144 27.4645 7.56029 30.0815 9.61438 32.1356C11.6685 34.1897 14.2855 35.5886 17.1346 36.1553C19.9837 36.722 22.9369 36.4311 25.6207 35.3195C28.3045 34.2078 30.5983 32.3253 32.2122 29.9099C33.8261 27.4946 34.6875 24.6549 34.6875 21.75C34.683 17.856 33.1341 14.1228 30.3806 11.3694C27.6272 8.61594 23.894 7.06705 20 7.0625ZM20 34.5625C17.4659 34.5625 14.9888 33.8111 12.8818 32.4032C10.7748 30.9953 9.13255 28.9943 8.1628 26.6531C7.19305 24.312 6.93932 21.7358 7.4337 19.2504C7.92807 16.765 9.14834 14.4821 10.9402 12.6902C12.7321 10.8983 15.015 9.67806 17.5004 9.18369C19.9858 8.68932 22.562 8.94305 24.9031 9.91279C27.2443 10.8825 29.2454 12.5248 30.6532 14.6318C32.0611 16.7388 32.8125 19.2159 32.8125 21.75C32.8084 25.1468 31.4572 28.4033 29.0552 30.8052C26.6533 33.2072 23.3968 34.5584 20 34.5625ZM26.9125 14.8375C27.0881 15.0133 27.1867 15.2516 27.1867 15.5C27.1867 15.7484 27.0881 15.9867 26.9125 16.1625L20.6625 22.4125C20.5767 22.5046 20.4732 22.5785 20.3582 22.6297C20.2432 22.681 20.119 22.7085 19.9932 22.7107C19.8673 22.713 19.7422 22.6898 19.6255 22.6427C19.5088 22.5955 19.4027 22.5253 19.3137 22.4363C19.2247 22.3473 19.1545 22.2412 19.1074 22.1245C19.0602 22.0078 19.037 21.8827 19.0393 21.7568C19.0415 21.631 19.069 21.5068 19.1203 21.3918C19.1715 21.2768 19.2454 21.1733 19.3375 21.0875L25.5875 14.8375C25.7633 14.6619 26.0016 14.5633 26.25 14.5633C26.4984 14.5633 26.7367 14.6619 26.9125 14.8375ZM15.3125 3C15.3125 2.75136 15.4113 2.5129 15.5871 2.33709C15.7629 2.16127 16.0014 2.0625 16.25 2.0625H23.75C23.9986 2.0625 24.2371 2.16127 24.4129 2.33709C24.5887 2.5129 24.6875 2.75136 24.6875 3C24.6875 3.24864 24.5887 3.4871 24.4129 3.66291C24.2371 3.83873 23.9986 3.9375 23.75 3.9375H16.25C16.0014 3.9375 15.7629 3.83873 15.5871 3.66291C15.4113 3.4871 15.3125 3.24864 15.3125 3Z" fill="#343330"/>
</svg>
