<svg width="40" height="41" viewBox="0 0 40 41" fill="none" xmlns="http://www.w3.org/2000/svg">
<rect x="4.28613" y="7.64282" width="28.5714" height="28.5714" rx="14.2857" fill="#F5BA6D"/>
<path d="M35.1421 11.3985C35.0853 11.2579 34.9951 11.1332 34.8795 11.0352C34.7639 10.9371 34.6262 10.8685 34.4782 10.8353C34.3303 10.8021 34.1765 10.8053 34.0301 10.8446C33.8836 10.8839 33.7489 10.9582 33.6374 11.061L27.2203 16.9828L24.1718 16.3282L23.5171 13.2797L29.439 6.86253C29.5418 6.75108 29.616 6.61635 29.6553 6.46991C29.6946 6.32346 29.6978 6.16967 29.6647 6.02172C29.6315 5.87377 29.5629 5.73608 29.4648 5.62045C29.3667 5.50482 29.2421 5.41471 29.1015 5.35784C27.0665 4.53288 24.8303 4.33957 22.6838 4.80306C20.5374 5.26655 18.5802 6.36538 17.0669 7.95656C15.5537 9.54773 14.5543 11.5576 14.1991 13.7245C13.8438 15.8915 14.149 18.1152 15.0749 20.1063L5.48275 28.3875C5.46556 28.4016 5.44994 28.4172 5.43275 28.4344C4.99724 28.8697 4.65172 29.3865 4.41595 29.9554C4.18017 30.5242 4.05874 31.1339 4.05859 31.7497C4.0583 32.9933 4.55204 34.1861 5.43119 35.0657C6.31034 35.9452 7.50289 36.4395 8.74649 36.4398C9.99009 36.4401 11.1829 35.9464 12.0624 35.0672C12.0796 35.05 12.0953 35.0344 12.1093 35.0172L20.3906 25.425C22.3817 26.351 24.6054 26.6562 26.7723 26.3009C28.9393 25.9456 30.9491 24.9463 32.5403 23.433C34.1315 21.9197 35.2303 19.9625 35.6938 17.8161C36.1573 15.6697 35.964 13.4335 35.139 11.3985H35.1421ZM24.9999 24.5625C23.4697 24.5619 21.9646 24.1738 20.6249 23.4344C20.4366 23.3301 20.218 23.2938 20.006 23.3316C19.794 23.3695 19.6015 23.4792 19.4609 23.6422L10.714 33.7625C10.1829 34.2713 9.47364 34.5519 8.7382 34.544C8.00276 34.5361 7.29966 34.2404 6.77959 33.7204C6.25953 33.2003 5.96387 32.4972 5.95599 31.7618C5.94811 31.0263 6.22864 30.3171 6.73744 29.786L16.8562 21.0453C17.0205 20.9041 17.1308 20.7104 17.1684 20.497C17.206 20.2837 17.1686 20.0639 17.0624 19.875C16.2139 18.3402 15.829 16.5921 15.9543 14.8429C16.0796 13.0936 16.7098 11.4182 17.7684 10.02C18.8271 8.62181 20.2687 7.5608 21.9183 6.96567C23.568 6.37055 25.355 6.26687 27.0624 6.66722L21.8093 12.3641C21.7076 12.4746 21.6339 12.6079 21.5945 12.7529C21.5551 12.8978 21.551 13.0501 21.5828 13.1969L22.4656 17.3141C22.5034 17.4908 22.5916 17.6528 22.7193 17.7806C22.8471 17.9084 23.0092 17.9965 23.1859 18.0344L27.3031 18.9172C27.4499 18.9489 27.6022 18.9449 27.7471 18.9055C27.892 18.866 28.0254 18.7924 28.1359 18.6907L33.8265 13.4375C34.1354 14.7671 34.1403 16.1493 33.8408 17.4811C33.5413 18.8128 32.9452 20.0598 32.0968 21.1292C31.2484 22.1985 30.1696 23.0626 28.9408 23.6571C27.712 24.2515 26.365 24.561 24.9999 24.5625Z" fill="#343330"/>
</svg>
