<svg width="40" height="40" viewBox="0 0 40 40" fill="none" xmlns="http://www.w3.org/2000/svg">
<rect x="3" y="4" width="29" height="24" rx="8" fill="#F5BA6D"/>
<path d="M28.4375 17.5C28.4375 17.7486 28.3387 17.9871 28.1629 18.1629C27.9871 18.3387 27.7486 18.4375 27.5 18.4375H15C14.7514 18.4375 14.5129 18.3387 14.3371 18.1629C14.1613 17.9871 14.0625 17.7486 14.0625 17.5C14.0625 17.2514 14.1613 17.0129 14.3371 16.8371C14.5129 16.6613 14.7514 16.5625 15 16.5625H27.5C27.7486 16.5625 27.9871 16.6613 28.1629 16.8371C28.3387 17.0129 28.4375 17.2514 28.4375 17.5ZM27.5 21.5625H15C14.7514 21.5625 14.5129 21.6613 14.3371 21.8371C14.1613 22.0129 14.0625 22.2514 14.0625 22.5C14.0625 22.7486 14.1613 22.9871 14.3371 23.1629C14.5129 23.3387 14.7514 23.4375 15 23.4375H27.5C27.7486 23.4375 27.9871 23.3387 28.1629 23.1629C28.3387 22.9871 28.4375 22.7486 28.4375 22.5C28.4375 22.2514 28.3387 22.0129 28.1629 21.8371C27.9871 21.6613 27.7486 21.5625 27.5 21.5625ZM35.9375 10V28.75C35.9375 29.6617 35.5753 30.536 34.9307 31.1807C34.286 31.8253 33.4117 32.1875 32.5 32.1875H5C4.09075 32.1875 3.21853 31.8273 2.57428 31.1857C1.93003 30.544 1.56622 29.6733 1.5625 28.7641V13.75C1.5625 13.5014 1.66127 13.2629 1.83709 13.0871C2.0129 12.9113 2.25136 12.8125 2.5 12.8125C2.74864 12.8125 2.9871 12.9113 3.16291 13.0871C3.33873 13.2629 3.4375 13.5014 3.4375 13.75V28.75C3.4375 29.1644 3.60212 29.5618 3.89515 29.8549C4.18817 30.1479 4.5856 30.3125 5 30.3125C5.4144 30.3125 5.81183 30.1479 6.10485 29.8549C6.39788 29.5618 6.5625 29.1644 6.5625 28.75V10C6.5625 9.41984 6.79297 8.86344 7.2032 8.4532C7.61344 8.04297 8.16984 7.8125 8.75 7.8125H33.75C34.3302 7.8125 34.8866 8.04297 35.2968 8.4532C35.707 8.86344 35.9375 9.41984 35.9375 10ZM34.0625 10C34.0625 9.91712 34.0296 9.83763 33.971 9.77903C33.9124 9.72042 33.8329 9.6875 33.75 9.6875H8.75C8.66712 9.6875 8.58763 9.72042 8.52903 9.77903C8.47042 9.83763 8.4375 9.91712 8.4375 10V28.75C8.43817 29.2934 8.30907 29.8291 8.06094 30.3125H32.5C32.9144 30.3125 33.3118 30.1479 33.6049 29.8549C33.8979 29.5618 34.0625 29.1644 34.0625 28.75V10Z" fill="#343330"/>
</svg>
